<?xml version="1.0" encoding="UTF-8" standalone="no"?>
<!DOCTYPE svg PUBLIC "-//W3C//DTD SVG 1.1//EN" "http://www.w3.org/Graphics/SVG/1.1/DTD/svg11.dtd">
<svg width="100%" height="100%" viewBox="0 0 2334 947" version="1.1" xmlns="http://www.w3.org/2000/svg" xmlns:xlink="http://www.w3.org/1999/xlink" xml:space="preserve" xmlns:serif="http://www.serif.com/" style="fill-rule:evenodd;clip-rule:evenodd;stroke-linejoin:round;stroke-miterlimit:2;">
    <g transform="matrix(1,0,0,1,-317.229,-941.475)">
        <g transform="matrix(1.05039,0.283632,-0.283632,1.05039,2154.35,1645.8)">
            <g transform="matrix(835.611,0,0,835.611,0,0)">
                <path d="M0.05,-0.652L0.05,-0.723C0.051,-0.739 0.056,-0.75 0.072,-0.75L0.166,-0.75C0.173,-0.75 0.176,-0.742 0.178,-0.736C0.182,-0.72 0.181,-0.703 0.182,-0.687C0.183,-0.661 0.183,-0.634 0.183,-0.607C0.184,-0.545 0.183,-0.482 0.184,-0.412C0.184,-0.329 0.178,-0.243 0.181,-0.16L0.181,-0.145C0.182,-0.132 0.185,-0.129 0.197,-0.128C0.204,-0.128 0.211,-0.128 0.218,-0.129C0.259,-0.131 0.3,-0.129 0.341,-0.13C0.353,-0.13 0.361,-0.125 0.362,-0.111C0.362,-0.084 0.362,-0.059 0.363,-0.031C0.364,-0.013 0.362,-0.004 0.34,-0.003C0.318,-0.003 0.295,-0.002 0.272,-0.003C0.202,-0.004 0.133,0.002 0.063,-0.001C0.058,-0.001 0.055,-0.006 0.055,-0.011C0.054,-0.042 0.054,-0.073 0.054,-0.104C0.055,-0.137 0.049,-0.59 0.05,-0.652Z" style="fill:rgb(49,211,71);fill-rule:nonzero;"/>
            </g>
        </g>
        <g transform="matrix(1.2635,-0.166449,0.166449,1.2635,1593.12,1893.92)">
            <g transform="matrix(835.611,0,0,835.611,0,0)">
                <path d="M0.577,-0.566C0.539,-0.673 0.437,-0.749 0.326,-0.751C0.215,-0.749 0.113,-0.673 0.076,-0.566C0.055,-0.504 0.05,-0.437 0.05,-0.371C0.05,-0.316 0.059,-0.263 0.074,-0.21C0.091,-0.147 0.122,-0.09 0.175,-0.053C0.216,-0.024 0.258,-0.005 0.307,-0C0.314,-0 0.32,0.001 0.326,0.001C0.333,0.001 0.339,-0 0.346,-0C0.395,-0.005 0.437,-0.024 0.477,-0.053C0.531,-0.09 0.561,-0.147 0.579,-0.21C0.593,-0.263 0.603,-0.316 0.603,-0.371C0.603,-0.437 0.598,-0.504 0.577,-0.566ZM0.48,-0.298C0.47,-0.243 0.45,-0.169 0.398,-0.141C0.376,-0.129 0.351,-0.121 0.326,-0.12C0.301,-0.121 0.277,-0.129 0.255,-0.141C0.203,-0.169 0.183,-0.243 0.173,-0.298C0.163,-0.359 0.167,-0.421 0.179,-0.482C0.19,-0.537 0.214,-0.591 0.261,-0.624C0.269,-0.63 0.277,-0.635 0.287,-0.638C0.3,-0.644 0.313,-0.646 0.326,-0.646C0.339,-0.646 0.353,-0.644 0.366,-0.638C0.375,-0.635 0.384,-0.63 0.392,-0.624C0.438,-0.591 0.462,-0.537 0.474,-0.482C0.486,-0.421 0.49,-0.359 0.48,-0.298Z" style="fill:rgb(139,69,18);fill-rule:nonzero;"/>
            </g>
        </g>
        <g transform="matrix(1.09929,0.00385345,-0.00385345,1.09929,1170.08,1660.49)">
            <g transform="matrix(835.611,0,0,835.611,0,0)">
                <path d="M0.051,-0.673C0.051,-0.694 0.055,-0.711 0.055,-0.732C0.055,-0.748 0.062,-0.754 0.077,-0.754C0.12,-0.752 0.16,-0.755 0.203,-0.751C0.245,-0.747 0.293,-0.734 0.325,-0.704C0.344,-0.686 0.356,-0.663 0.365,-0.639C0.379,-0.602 0.388,-0.561 0.384,-0.521C0.379,-0.475 0.342,-0.444 0.316,-0.407C0.314,-0.405 0.357,-0.378 0.36,-0.374C0.381,-0.346 0.397,-0.312 0.403,-0.277C0.41,-0.238 0.412,-0.193 0.399,-0.155C0.383,-0.11 0.36,-0.067 0.318,-0.043C0.273,-0.019 0.226,-0.007 0.174,-0.011C0.144,-0.01 0.113,-0.013 0.084,-0.01C0.078,-0.01 0.07,-0.012 0.064,-0.014C0.057,-0.017 0.052,-0.022 0.052,-0.03C0.052,-0.041 0.052,-0.052 0.051,-0.063C0.049,-0.109 0.051,-0.625 0.051,-0.673ZM0.174,-0.491C0.174,-0.491 0.173,-0.468 0.173,-0.456C0.174,-0.45 0.18,-0.447 0.186,-0.449C0.198,-0.454 0.209,-0.461 0.221,-0.467C0.239,-0.476 0.249,-0.49 0.256,-0.508C0.262,-0.523 0.262,-0.539 0.262,-0.555C0.261,-0.587 0.242,-0.61 0.217,-0.629C0.209,-0.635 0.201,-0.636 0.191,-0.638C0.178,-0.641 0.171,-0.635 0.172,-0.623C0.174,-0.59 0.173,-0.502 0.174,-0.491ZM0.274,-0.226L0.274,-0.242C0.272,-0.268 0.267,-0.293 0.254,-0.316C0.243,-0.335 0.221,-0.345 0.197,-0.342C0.181,-0.339 0.177,-0.336 0.176,-0.319C0.176,-0.297 0.178,-0.275 0.175,-0.254C0.175,-0.221 0.174,-0.191 0.175,-0.16C0.175,-0.153 0.177,-0.146 0.179,-0.14C0.18,-0.137 0.185,-0.134 0.188,-0.134C0.233,-0.135 0.272,-0.173 0.273,-0.203C0.273,-0.212 0.274,-0.221 0.274,-0.226Z" style="fill:rgb(167,126,198);fill-rule:nonzero;"/>
            </g>
        </g>
        <g transform="matrix(0.99626,-0.14786,0.14786,0.99626,817.714,1758.63)">
            <g transform="matrix(835.611,0,0,835.611,0,0)">
                <path d="M0.174,-0.075C0.174,-0.036 0.182,-0 0.16,-0C0.131,-0 0.114,0.001 0.086,0.001C0.079,0.001 0.071,-0 0.064,-0C0.052,-0 0.05,-0.003 0.05,-0.016C0.05,-0.06 0.052,-0.366 0.052,-0.482C0.051,-0.558 0.049,-0.635 0.051,-0.712L0.051,-0.724C0.052,-0.741 0.062,-0.75 0.078,-0.75C0.112,-0.75 0.131,-0.75 0.158,-0.749C0.189,-0.748 0.219,-0.751 0.25,-0.749C0.301,-0.746 0.344,-0.723 0.377,-0.684C0.42,-0.631 0.435,-0.559 0.425,-0.493C0.416,-0.426 0.373,-0.382 0.325,-0.339C0.323,-0.336 0.308,-0.329 0.31,-0.325C0.312,-0.316 0.372,-0.2 0.381,-0.18C0.394,-0.154 0.451,-0.048 0.459,-0.018C0.462,-0.007 0.459,0.001 0.446,0.001L0.336,-0C0.33,-0 0.323,0.002 0.319,-0.004C0.316,-0.007 0.305,-0.039 0.3,-0.05C0.264,-0.126 0.229,-0.204 0.189,-0.282C0.188,-0.285 0.186,-0.287 0.182,-0.287C0.178,-0.287 0.176,-0.281 0.175,-0.278C0.174,-0.265 0.174,-0.101 0.174,-0.075ZM0.174,-0.465C0.174,-0.465 0.175,-0.434 0.175,-0.418C0.176,-0.394 0.204,-0.399 0.219,-0.403C0.244,-0.41 0.266,-0.423 0.279,-0.445C0.306,-0.492 0.31,-0.576 0.26,-0.61C0.243,-0.622 0.204,-0.636 0.185,-0.622C0.171,-0.611 0.176,-0.581 0.175,-0.566L0.174,-0.465Z" style="fill:rgb(255,165,0);fill-rule:nonzero;"/>
            </g>
        </g>
        <g transform="matrix(1.17125,-0.0222794,0.0222794,1.17125,281.785,1684.72)">
            <g transform="matrix(835.611,0,0,835.611,0,0)">
                <path d="M0.142,-0.008C0.111,-0.007 0.088,-0.007 0.063,-0.007C0.059,-0.007 0.054,-0.006 0.051,-0.008C0.045,-0.009 0.093,-0.218 0.1,-0.247C0.12,-0.329 0.136,-0.409 0.154,-0.492C0.168,-0.558 0.204,-0.717 0.206,-0.731C0.208,-0.746 0.207,-0.75 0.221,-0.75C0.256,-0.748 0.292,-0.75 0.326,-0.75C0.342,-0.75 0.336,-0.749 0.343,-0.731C0.348,-0.701 0.462,-0.16 0.466,-0.148C0.475,-0.12 0.477,-0.091 0.486,-0.063C0.489,-0.055 0.505,-0.008 0.482,-0.008C0.465,-0.007 0.407,-0.007 0.391,-0.007C0.379,-0.007 0.378,-0.006 0.374,-0.018C0.368,-0.035 0.363,-0.056 0.357,-0.073L0.35,-0.096C0.347,-0.105 0.341,-0.11 0.33,-0.11C0.28,-0.111 0.255,-0.115 0.205,-0.109C0.195,-0.107 0.192,-0.106 0.191,-0.094C0.189,-0.079 0.183,-0.007 0.163,-0.007C0.154,-0.007 0.145,-0.007 0.142,-0.008ZM0.273,-0.235C0.282,-0.235 0.291,-0.234 0.3,-0.234C0.318,-0.234 0.322,-0.234 0.313,-0.27C0.304,-0.311 0.298,-0.343 0.289,-0.381C0.285,-0.393 0.281,-0.423 0.277,-0.435C0.276,-0.436 0.274,-0.438 0.272,-0.438C0.271,-0.438 0.269,-0.436 0.268,-0.434C0.262,-0.405 0.235,-0.286 0.23,-0.264C0.223,-0.235 0.224,-0.235 0.252,-0.235L0.273,-0.235Z" style="fill:rgb(211,42,41);fill-rule:nonzero;"/>
            </g>
        </g>
    </g>
</svg>
