<?xml version="1.0" encoding="UTF-8" standalone="no"?>
<!DOCTYPE svg PUBLIC "-//W3C//DTD SVG 1.1//EN" "http://www.w3.org/Graphics/SVG/1.1/DTD/svg11.dtd">
<svg width="100%" height="100%" viewBox="0 0 1944 841" version="1.1" xmlns="http://www.w3.org/2000/svg" xmlns:xlink="http://www.w3.org/1999/xlink" xml:space="preserve" xmlns:serif="http://www.serif.com/" style="fill-rule:evenodd;clip-rule:evenodd;stroke-linejoin:round;stroke-miterlimit:2;">
    <g transform="matrix(1,0,0,1,-183.127,-789.596)">
        <g transform="matrix(0.31165,0.00109246,-0.00109246,0.31165,111.167,99.8265)">
            <g transform="matrix(2.52062,0.671162,-0.671162,2.52062,5288.94,-9875.11)">
                <path d="M1586.08,4705.9L1586.08,4646.57C1586.92,4633.2 1591.1,4624.01 1604.47,4624.01L1683.01,4624.01C1688.86,4624.01 1691.37,4630.7 1693.04,4635.71C1696.38,4649.08 1695.55,4663.29 1696.38,4676.66C1697.22,4698.38 1697.22,4720.94 1697.22,4743.5C1698.05,4795.31 1697.22,4847.96 1698.05,4906.45C1698.05,4975.8 1693.04,5047.67 1695.55,5117.02L1695.55,5129.56C1696.38,5140.42 1698.89,5142.93 1708.92,5143.76C1714.77,5143.76 1720.62,5143.76 1726.47,5142.93C1760.73,5141.26 1794.99,5142.93 1829.25,5142.09C1839.27,5142.09 1845.96,5146.27 1846.79,5157.97C1846.79,5180.53 1846.79,5201.42 1847.63,5224.82C1848.46,5239.86 1846.79,5247.38 1828.41,5248.21C1810.03,5248.21 1790.81,5249.05 1771.59,5248.21C1713.1,5247.38 1655.44,5252.39 1596.94,5249.89C1592.77,5249.89 1590.26,5245.71 1590.26,5241.53C1589.42,5215.62 1589.42,5189.72 1589.42,5163.82C1590.26,5136.24 1585.25,4757.71 1586.08,4705.9Z" style="fill:rgb(49,211,71);fill-rule:nonzero;"/>
            </g>
            <g transform="matrix(3.75637,-0.508251,0.508251,3.75637,-10719,-3541.89)">
                <path d="M4027.82,2286.89C3996.06,2197.48 3910.83,2133.97 3818.08,2132.3C3725.33,2133.97 3640.09,2197.48 3609.18,2286.89C3591.63,2338.7 3587.45,2394.68 3587.45,2449.83C3587.45,2495.79 3594.97,2540.08 3607.5,2584.37C3621.71,2637.01 3647.61,2684.64 3691.9,2715.56C3726.16,2739.79 3761.26,2755.66 3802.2,2759.84C3808.05,2759.84 3813.06,2760.68 3818.08,2760.68C3823.93,2760.68 3828.94,2759.84 3834.79,2759.84C3875.74,2755.66 3910.83,2739.79 3944.26,2715.56C3989.38,2684.64 4014.45,2637.01 4029.49,2584.37C4041.19,2540.08 4049.54,2495.79 4049.54,2449.83C4049.54,2394.68 4045.36,2338.7 4027.82,2286.89ZM3946.76,2510.83C3938.41,2556.79 3921.69,2618.62 3878.24,2642.02C3859.86,2652.05 3838.97,2658.73 3818.08,2659.57C3797.19,2658.73 3777.13,2652.05 3758.75,2642.02C3715.3,2618.62 3698.59,2556.79 3690.23,2510.83C3681.87,2459.86 3685.22,2408.05 3695.24,2357.08C3704.43,2311.12 3724.49,2266 3763.76,2238.42C3770.45,2233.41 3777.13,2229.23 3785.49,2226.72C3796.35,2221.71 3807.22,2220.04 3818.08,2220.04C3828.94,2220.04 3840.64,2221.71 3851.5,2226.72C3859.02,2229.23 3866.54,2233.41 3873.23,2238.42C3911.67,2266 3931.72,2311.12 3941.75,2357.08C3951.78,2408.05 3955.12,2459.86 3946.76,2510.83Z" style="fill:rgb(139,69,18);fill-rule:nonzero;"/>
            </g>
            <g transform="matrix(3.26971,0,0,3.26971,-9412.19,-13243.4)">
                <path d="M3759.78,4813.18C3759.78,4795.64 3763.12,4781.43 3763.12,4763.88C3763.12,4750.51 3768.97,4745.5 3781.5,4745.5C3817.43,4747.17 3850.86,4744.66 3886.79,4748.01C3921.89,4751.35 3961.99,4762.21 3988.73,4787.28C4004.61,4802.32 4014.64,4821.54 4022.16,4841.6C4033.86,4872.51 4041.38,4906.77 4038.04,4940.2C4033.86,4978.64 4002.94,5004.54 3981.21,5035.46C3979.54,5037.13 4015.47,5059.69 4017.98,5063.03C4035.53,5086.43 4048.9,5114.84 4053.91,5144.09C4059.76,5176.68 4061.43,5214.28 4050.57,5246.03C4037.2,5283.63 4017.98,5319.56 3982.89,5339.62C3945.28,5359.67 3906.01,5369.7 3862.56,5366.36C3837.49,5367.19 3811.59,5364.69 3787.35,5367.19C3782.34,5367.19 3775.65,5365.52 3770.64,5363.85C3764.79,5361.35 3760.61,5357.17 3760.61,5350.48C3760.61,5341.29 3760.61,5332.1 3759.78,5322.91C3758.11,5284.47 3759.78,4853.29 3759.78,4813.18ZM3862.56,4965.27C3862.56,4965.27 3861.72,4984.48 3861.72,4994.51C3862.56,4999.53 3867.57,5002.03 3872.58,5000.36C3882.61,4996.18 3891.8,4990.33 3901.83,4985.32C3916.87,4977.8 3925.23,4966.1 3931.08,4951.06C3936.09,4938.53 3936.09,4925.16 3936.09,4911.79C3935.26,4885.05 3919.38,4865.83 3898.49,4849.95C3891.8,4844.94 3885.12,4844.1 3876.76,4842.43C3865.9,4839.92 3860.05,4844.94 3860.89,4854.97C3862.56,4882.54 3861.72,4956.07 3862.56,4965.27ZM3946.12,5186.7L3946.12,5173.33C3944.45,5151.61 3940.27,5130.72 3929.41,5111.5C3920.21,5095.62 3901.83,5087.26 3881.78,5089.77C3868.41,5092.28 3865.06,5094.78 3864.23,5108.99C3864.23,5127.37 3865.9,5145.76 3863.39,5163.31C3863.39,5190.88 3862.56,5215.95 3863.39,5241.85C3863.39,5247.7 3865.06,5253.55 3866.74,5258.57C3867.57,5261.07 3871.75,5263.58 3874.26,5263.58C3911.86,5262.74 3944.45,5230.99 3945.28,5205.92C3945.28,5198.4 3946.12,5190.88 3946.12,5186.7Z" style="fill:rgb(167,126,198);fill-rule:nonzero;"/>
            </g>
            <g transform="matrix(2.96169,-0.450176,0.450176,2.96169,-4360.41,-11731.5)">
                <path d="M1323.07,5640.27C1323.07,5672.86 1329.75,5702.94 1311.37,5702.94C1287.14,5702.94 1272.93,5703.77 1249.54,5703.77C1243.69,5703.77 1237,5702.94 1231.15,5702.94C1221.12,5702.94 1219.45,5700.43 1219.45,5689.57C1219.45,5652.8 1221.12,5397.1 1221.12,5300.17C1220.29,5236.67 1218.62,5172.32 1220.29,5107.98L1220.29,5097.96C1221.12,5083.75 1229.48,5076.23 1242.85,5076.23C1271.26,5076.23 1287.14,5076.23 1309.7,5077.07C1335.6,5077.9 1360.67,5075.39 1386.58,5077.07C1429.19,5079.57 1465.12,5098.79 1492.7,5131.38C1528.63,5175.67 1541.16,5235.83 1532.81,5290.98C1525.29,5346.97 1489.36,5383.73 1449.25,5419.67C1447.58,5422.17 1435.04,5428.02 1436.71,5431.36C1438.38,5438.89 1488.52,5535.82 1496.04,5552.53C1506.9,5574.25 1554.53,5662.83 1561.22,5687.9C1563.72,5697.09 1561.22,5703.77 1550.36,5703.77L1458.44,5702.94C1453.42,5702.94 1447.58,5704.61 1444.23,5699.6C1441.73,5697.09 1432.53,5670.35 1428.36,5661.16C1398.27,5597.65 1369.03,5532.47 1335.6,5467.3C1334.77,5464.79 1333.1,5463.12 1329.75,5463.12C1326.41,5463.12 1324.74,5468.13 1323.9,5470.64C1323.07,5481.5 1323.07,5618.54 1323.07,5640.27ZM1323.07,5314.38C1323.07,5314.38 1323.9,5340.28 1323.9,5353.65C1324.74,5373.71 1348.14,5369.53 1360.67,5366.19C1381.56,5360.34 1399.94,5349.48 1410.81,5331.09C1433.37,5291.82 1436.71,5221.63 1394.93,5193.22C1380.73,5183.19 1348.14,5171.49 1332.26,5183.19C1320.56,5192.38 1324.74,5217.45 1323.9,5229.98L1323.07,5314.38Z" style="fill:rgb(255,165,0);fill-rule:nonzero;"/>
            </g>
            <g transform="matrix(3.48349,-0.0784788,0.0784788,3.48349,-5691.63,-13755.2)">
                <path d="M1662.96,5244.03C1637.05,5244.87 1617.84,5244.87 1596.94,5244.87C1593.6,5244.87 1589.42,5245.71 1586.92,5244.03C1581.9,5243.2 1622.01,5068.56 1627.86,5044.32C1644.58,4975.8 1657.94,4908.95 1672.99,4839.6C1684.68,4784.45 1714.77,4651.59 1716.44,4639.89C1718.11,4627.36 1717.27,4624.01 1728.97,4624.01C1758.22,4625.68 1788.3,4624.01 1816.71,4624.01C1830.08,4624.01 1825.07,4624.85 1830.92,4639.89C1835.09,4664.96 1930.35,5117.02 1933.7,5127.05C1941.22,5150.45 1942.89,5174.68 1950.41,5198.08C1952.91,5204.76 1966.29,5244.03 1947.07,5244.03C1932.86,5244.87 1884.39,5244.87 1871.03,5244.87C1861,5244.87 1860.16,5245.71 1856.82,5235.68C1851.81,5221.47 1847.63,5203.93 1842.61,5189.72L1836.77,5170.5C1834.26,5162.98 1829.25,5158.8 1820.05,5158.8C1778.27,5157.97 1757.38,5154.62 1715.6,5159.64C1707.25,5161.31 1704.74,5162.15 1703.9,5172.17C1702.23,5184.71 1697.22,5244.87 1680.51,5244.87C1672.99,5244.87 1665.47,5244.87 1662.96,5244.03ZM1772.42,5054.35C1779.94,5054.35 1787.46,5055.19 1794.99,5055.19C1810.03,5055.19 1813.37,5055.19 1805.85,5025.11C1798.33,4990.85 1793.31,4964.11 1785.79,4932.35C1782.45,4922.32 1779.11,4897.26 1775.77,4887.23C1774.93,4886.39 1773.26,4884.72 1771.59,4884.72C1770.75,4884.72 1769.08,4886.39 1768.25,4888.07C1763.23,4912.3 1740.67,5011.73 1736.49,5030.12C1730.64,5054.35 1731.48,5054.35 1754.88,5054.35L1772.42,5054.35Z" style="fill:rgb(211,42,41);fill-rule:nonzero;"/>
            </g>
        </g>
    </g>
</svg>
